<?xml version="1.0" encoding="utf-8"?>
<!-- Generator: Adobe Illustrator 19.0.0, SVG Export Plug-In . SVG Version: 6.00 Build 0)  -->
<svg version="1.1" id="Layer_1" xmlns="http://www.w3.org/2000/svg" xmlns:xlink="http://www.w3.org/1999/xlink" x="0px" y="0px"
	 viewBox="-290 382 30 30" style="enable-background:new -290 382 30 30;" xml:space="preserve">
<style type="text/css">
	.st0{fill:#FF6600;}
	.st1{fill:#FFFFFF;}
</style>
<circle id="XMLID_1_" class="st0" cx="-275" cy="397" r="15"/>
<path class="st1" d="M-266.8,395.1h-4.6c-0.5,0-0.8-0.7-0.4-1l1.7-1.7c-2.7-2.7-7.1-2.8-9.8,0c-2.5,2.6-2.5,6.9,0,9.5
	c2.7,2.7,7.1,2.7,9.8,0.1c1.2-1.2,1.9-2.6,2-4.2c0-0.3,0.3-0.6,0.6-0.6h0.7c0.4,0,0.6,0.3,0.6,0.7c-0.2,1.8-1,4-2.6,5.5
	c-3.5,3.4-9.1,3.4-12.5,0s-3.5-9,0-12.4c3.4-3.4,9-3.4,12.4,0l1.6-1.7c0.4-0.4,1.1-0.1,1.1,0.4v4.9
	C-266.1,394.8-266.4,395.1-266.8,395.1z M-274.5,393.7v3.5l2.8,1.7c0.3,0.2,0.4,0.6,0.2,0.9l0,0c-0.2,0.3-0.6,0.4-0.9,0.2l-3.6-2.1
	v-4.2c0-0.4,0.3-0.7,0.7-0.7h0.1C-274.8,393-274.5,393.3-274.5,393.7z"/>
</svg>
